# xmcd CD database file
#
# Track frame offsets:
#	150
#	11397
#	21525
#	32262
#	42085
#	55677
#	67207
#	78847
#	88652
#	100737
#
# Disc length: 1518 seconds
#
# Revision: 1
# Processed by: cddbd v1.4PL0 Copyright (c) Steve Scherf et al.
# Submitted via: CDex 1.40Release
#
DISCID=6f05ec0a
DTITLE=Steve Earle - Early Tracks
DYEAR=1987
DGENRE=Country
TTITLE0=Nothin' But You
TTITLE1=If You Need A Fool
TTITLE2=Continental Trailways Blues
TTITLE3=Open Up Your Door
TTITLE4=Breakdown Lane
TTITLE5=Squeeze Me In
TTITLE6=Annie, Is Tonight The Night
TTITLE7=My Baby Worships Me
TTITLE8=Cadillac
TTITLE9=Devil's Right Hand
EXTD=YEAR: 1987 ID3G: 2
EXTT0=
EXTT1=
EXTT2=
EXTT3=
EXTT4=
EXTT5=
EXTT6=
EXTT7=
EXTT8=
EXTT9=
PLAYORDER=
